<svg xmlns="http://www.w3.org/2000/svg" width="580" height="248" viewBox="0 0 580 248" role="img" aria-labelledby="title desc">
  <title id="title">Setyra</title>
  <desc id="desc">Microsoft Store'da listelenen Windows kurulum ve sistem yönetim uygulaması.</desc>
  <defs>
    <linearGradient id="bg" x1="0" y1="0" x2="1" y2="1"><stop offset="0" stop-color="#092340"/><stop offset=".56" stop-color="#145687"/><stop offset="1" stop-color="#33A1A6"/></linearGradient>
    <linearGradient id="icon" x1="0" y1="0" x2="1" y2="1"><stop offset="0" stop-color="#B7EDFF"/><stop offset="1" stop-color="#67DBE8"/></linearGradient>
  </defs>
  <rect width="580" height="248" rx="22" fill="url(#bg)"/>
  <circle cx="514" cy="-22" r="148" fill="#FFFFFF" opacity=".06"/>
  <circle cx="550" cy="220" r="108" fill="#FFFFFF" opacity=".06"/>
  <rect x="34" y="36" width="75" height="75" rx="20" fill="url(#icon)"/>
  <path d="M57 58h29v8H57zm0 16h29v8H57zm0 16h29v8H57z" fill="#14517C"/>
  <circle cx="68" cy="62" r="5" fill="#FFFFFF"/><circle cx="78" cy="78" r="5" fill="#FFFFFF"/><circle cx="65" cy="94" r="5" fill="#FFFFFF"/>
  <text x="128" y="68" fill="#F4FCFF" font-family="Segoe UI, Arial, sans-serif" font-size="35" font-weight="700">Setyra</text>
  <text x="129" y="95" fill="#C9F4FF" font-family="Segoe UI, Arial, sans-serif" font-size="15" letter-spacing="2">WINDOWS DESKTOP</text>
  <text x="37" y="159" fill="#FFFFFF" font-family="Segoe UI, Arial, sans-serif" font-size="22" font-weight="600">Bilgisayarın, senin kontrolünde.</text>
  <text x="37" y="189" fill="#D8F4FB" font-family="Segoe UI, Arial, sans-serif" font-size="16">Kurulum, uygulamalar ve sistem yönetimi.</text>
  <rect x="37" y="210" width="177" height="25" rx="12" fill="#FFFFFF" fill-opacity=".18"/>
  <text x="52" y="227" fill="#FFFFFF" font-family="Segoe UI, Arial, sans-serif" font-size="12" font-weight="700" letter-spacing="1">MICROSOFT STORE ↗</text>
</svg>
